<?xml version="1.0"?>
<svg width="64" height="64" xmlns="http://www.w3.org/2000/svg" xmlns:svg="http://www.w3.org/2000/svg" class="iconify iconify--emojione-monotone" preserveAspectRatio="xMidYMid meet" stroke-width="1.536">

 <g class="layer">
  <title>Layer 1</title>
  <path d="m21.55,5.55l-15.75,14.91c0,0 -1.41,2.36 -1.41,2.59c0,0.23 -0.57,2.84 -0.57,2.95c0,0.11 5.34,19.2 5.27,19.11c-0.07,-0.09 1.43,3.5 1.43,3.73c0,0.23 4.32,3.98 4.2,3.98c-0.11,0 3.41,1.59 3.34,1.5c-0.07,-0.09 19.5,5.89 19.43,5.8c-0.07,-0.09 3.48,-0.48 3.41,-0.57c-0.07,-0.09 2.11,-0.82 2.05,-0.91c-0.07,-0.09 2.11,-2.07 2.05,-2.16c-0.07,-0.09 12.8,-12.98 12.73,-13.07c-0.07,-0.09 1.66,-3.55 1.59,-3.64c-0.07,-0.09 0.52,-2.75 0.45,-2.84c-0.07,-0.09 -1.18,-4.8 -1.25,-4.89c-0.07,-0.09 -2.09,-5.48 -2.16,-5.57c-0.07,-0.09 -2.32,-7.18 -2.39,-7.27c-0.07,-0.09 -1.3,-4.34 -1.36,-4.43c-0.07,-0.09 -2.66,-3.55 -2.77,-3.55c-0.11,0 -6.48,-2.27 -6.59,-2.27c-0.11,0 -10.8,-3.52 -10.86,-3.61c-0.07,-0.09 -5.95,-1.39 -6.02,-1.48c-0.07,-0.09 -3.34,1 -3.41,0.91c-0.07,-0.09 -1.41,0.77 -1.41,0.77z" fill="#ffffff" id="svg_9" stroke="#ffffff" stroke-dasharray="null" stroke-linecap="null" stroke-linejoin="null"/>
  <g id="SVGRepo_bgCarrier" stroke-width="0"/>
  <g id="SVGRepo_tracerCarrier" stroke-linecap="round" stroke-linejoin="round"/>
  <g id="SVGRepo_iconCarrier">
   <path d="m43.3,19.36c-0.89,-0.53 -1.77,-0.79 -2.46,-0.79c-0.68,0 -1.19,0.26 -1.34,0.79c-0.31,1.04 0.9,2.74 2.69,3.79c0.9,0.53 1.77,0.79 2.46,0.79c0.68,0 1.18,-0.26 1.34,-0.79c0.31,-1.05 -0.9,-2.75 -2.69,-3.8" fill="#665df5" id="svg_1"/>
   <path d="m29.13,48.14c-0.65,-0.23 -1.55,-0.27 -2.58,-0.08c-2.04,0.39 -3.74,1.59 -3.8,2.68c-0.04,0.55 0.35,0.96 1,1.19c0.65,0.23 1.56,0.28 2.57,0.08c2.05,-0.38 3.75,-1.58 3.81,-2.68c0.04,-0.54 -0.35,-0.96 -1,-1.19" fill="#665df5" id="svg_2"/>
   <path d="m39,45.92c-0.64,-0.23 -1.56,-0.27 -2.57,-0.08c-2.04,0.39 -3.75,1.59 -3.81,2.68c-0.03,0.55 0.36,0.96 1,1.19s1.56,0.28 2.58,0.09c2.04,-0.39 3.74,-1.59 3.81,-2.69c0.02,-0.54 -0.36,-0.96 -1.01,-1.19" fill="#665df5" id="svg_3"/>
   <path d="m48.47,43.99c-0.65,-0.23 -1.56,-0.28 -2.58,-0.08c-2.04,0.39 -3.74,1.58 -3.8,2.68c-0.04,0.54 0.35,0.96 1,1.19c0.64,0.23 1.56,0.27 2.58,0.08c2.04,-0.39 3.74,-1.59 3.8,-2.68c0.03,-0.55 -0.36,-0.96 -1,-1.19" fill="#665df5" id="svg_4"/>
   <path d="m21.38,26.28c-0.54,0.42 -1.07,1.17 -1.45,2.14c-0.76,1.93 -0.66,4.01 0.23,4.64c0.44,0.32 1,0.22 1.54,-0.2c0.54,-0.43 1.07,-1.17 1.45,-2.14c0.76,-1.93 0.66,-4.01 -0.23,-4.65c-0.44,-0.32 -1,-0.21 -1.54,0.21" fill="#665df5" id="svg_5"/>
   <path d="m10.38,22.93c-0.54,0.43 -1.07,1.17 -1.45,2.14c-0.76,1.93 -0.66,4.01 0.23,4.64c0.44,0.32 1,0.22 1.54,-0.21c0.54,-0.42 1.07,-1.16 1.45,-2.13c0.76,-1.93 0.66,-4.01 -0.23,-4.65c-0.44,-0.32 -1,-0.21 -1.54,0.21" fill="#665df5" id="svg_6"/>
   <path d="m61.69,35.72l-6.55,-19.77c-0.99,-2.98 -4.11,-6.1 -7.09,-7.09l-19.77,-6.55c-1.24,-0.41 -2.35,-0.41 -3.2,-0.01c-0.93,0.25 -1.98,0.65 -3.06,1.16c-1.48,0.68 -3.31,1.73 -4.08,2.64a4.87,4.87 0 0 0 -0.25,0.24l-13.26,13.26c-2.06,2.06 -2.98,5.98 -2.09,8.92l5.76,19.09c0.11,0.35 0.24,0.67 0.39,0.98c0.46,1.41 2.37,3.39 2.95,3.97c0.59,0.59 2.57,2.49 3.98,2.96c0.3,0.14 0.63,0.28 0.97,0.38l19.09,5.76c0.74,0.23 1.55,0.34 2.42,0.34l0,0c2.48,0 5.03,-0.95 6.5,-2.42l13.26,-13.27c0.09,-0.08 0.16,-0.16 0.24,-0.25c0.91,-0.78 1.96,-2.6 2.64,-4.08c0.51,-1.08 0.91,-2.14 1.16,-3.07c0.4,-0.86 0.4,-1.96 -0.01,-3.19m-50.18,14.05c-0.73,-0.89 -1.11,-1.54 -1.19,-1.81l-0.07,-0.19a4.16,4.16 0 0 1 -0.29,-0.72l-5.77,-19.09c-0.68,-2.24 0.06,-5.45 1.6,-6.99l13.27,-13.27c0.07,-0.06 0.14,-0.12 0.21,-0.18l0.12,-0.14c0.23,-0.28 0.84,-0.75 1.72,-1.27c0.84,0.27 1.56,1.06 1.94,2.34l5.77,19.09c0.78,2.59 -0.05,6.16 -1.85,7.96l-13.26,13.26c-0.72,0.72 -1.49,1.04 -2.2,1.01m45.11,-5.16l-0.14,0.13c-0.06,0.07 -0.12,0.14 -0.19,0.21l-13.26,13.26c-1.11,1.11 -3.17,1.85 -5.13,1.85l0,0a6.43,6.43 0 0 1 -1.86,-0.25l-19.09,-5.76a4.22,4.22 0 0 1 -0.72,-0.29l-0.18,-0.08c-0.28,-0.07 -0.93,-0.46 -1.81,-1.19c-0.04,-0.71 0.28,-1.47 1,-2.2l13.26,-13.26c1.8,-1.8 5.37,-2.63 7.96,-1.84l19.08,5.76c1.29,0.39 2.08,1.1 2.35,1.94c-0.52,0.88 -0.99,1.49 -1.27,1.72m3.31,-6.48l-0.08,0.2c-0.09,0.35 -0.22,0.75 -0.37,1.16c-0.53,0.1 -1.2,0.05 -1.96,-0.21l-19.77,-6.55c-2.69,-0.89 -5.59,-3.79 -6.48,-6.48l-6.55,-19.77c-0.26,-0.76 -0.31,-1.42 -0.21,-1.96c0.41,-0.15 0.8,-0.28 1.16,-0.37l0.2,-0.08c0.17,-0.09 0.4,-0.14 0.66,-0.14c0.34,0 0.72,0.07 1.14,0.21l19.77,6.56c2.38,0.79 5.07,3.48 5.86,5.86l6.56,19.77c0.24,0.76 0.27,1.41 0.07,1.8" fill="#665df5" id="svg_7"/>
  </g>
 </g>
</svg>