<?xml version="1.0" encoding="UTF-8"?>
<svg xmlns="http://www.w3.org/2000/svg" xmlns:xlink="http://www.w3.org/1999/xlink" width="30px" height="30px" viewBox="0 0 30 30" version="1.1">
<g id="surface1">
<path style="fill-rule:nonzero;fill:rgb(100%,100%,100%);fill-opacity:1;stroke-width:1;stroke-linecap:butt;stroke-linejoin:miter;stroke:rgb(0%,0%,0%);stroke-opacity:1;stroke-miterlimit:4;" d="M 64.6 220 L 116.2 129.066667 L 205.533333 76.533333 L 308.666667 76.533333 L 398 129.066667 L 449.6 220 L 449.6 325.066667 L 398 416 L 308.666667 468.533333 L 205.533333 468.533333 L 116.2 416 L 64.6 325.066667 Z M 64.6 220 " transform="matrix(0.0585938,0,0,0.0585938,0,0)"/>
<path style=" stroke:none;fill-rule:nonzero;fill:rgb(0%,0%,0%);fill-opacity:1;" d="M 13.566406 0.0664062 C 8.878906 0.550781 4.769531 3.101562 2.273438 7.074219 C -1.265625 12.703125 -0.597656 20.179688 3.878906 25.050781 C 6.371094 27.757812 9.453125 29.367188 13.15625 29.894531 C 13.851562 29.996094 16.15625 29.988281 16.875 29.890625 C 20.519531 29.386719 23.601562 27.78125 26.085938 25.085938 C 28.132812 22.871094 29.4375 20.039062 29.894531 16.847656 C 29.996094 16.15625 29.996094 13.847656 29.894531 13.15625 C 29.550781 10.71875 28.777344 8.648438 27.492188 6.714844 C 26.953125 5.894531 26.410156 5.226562 25.648438 4.460938 C 23.308594 2.09375 20.414062 0.632812 17.082031 0.140625 C 16.359375 0.0351562 14.28125 -0.0117188 13.566406 0.0664062 Z M 12.089844 5.691406 C 12.304688 5.789062 12.351562 5.941406 12.394531 6.679688 C 12.421875 7.25 12.445312 7.371094 12.546875 7.472656 C 12.65625 7.582031 12.761719 7.589844 16.015625 7.617188 C 19.722656 7.652344 19.617188 7.648438 20.503906 8.0625 C 21.574219 8.566406 22.429688 9.421875 22.941406 10.507812 C 23.28125 11.214844 23.398438 11.753906 23.398438 12.628906 C 23.398438 13.21875 23.367188 13.496094 23.269531 13.859375 C 23.023438 14.789062 22.535156 15.609375 21.84375 16.265625 C 21.347656 16.746094 21.042969 16.898438 20.597656 16.90625 C 19.722656 16.910156 19.121094 16.089844 19.367188 15.246094 C 19.441406 14.988281 19.546875 14.84375 19.917969 14.46875 C 20.167969 14.214844 20.4375 13.882812 20.519531 13.722656 C 20.71875 13.367188 20.824219 12.832031 20.777344 12.457031 C 20.644531 11.410156 20.0625 10.660156 19.160156 10.367188 C 18.792969 10.242188 18.691406 10.242188 15.769531 10.25 C 14.074219 10.253906 12.710938 10.285156 12.652344 10.3125 C 12.488281 10.40625 12.421875 10.707031 12.421875 11.425781 C 12.421875 12.089844 12.417969 12.117188 12.269531 12.269531 C 11.960938 12.574219 12.199219 12.710938 8.5625 10.171875 C 8.097656 9.84375 7.664062 9.511719 7.59375 9.417969 C 7.441406 9.210938 7.441406 8.894531 7.59375 8.691406 C 7.695312 8.554688 11 6.105469 11.574219 5.738281 C 11.773438 5.609375 11.890625 5.597656 12.089844 5.691406 Z M 9.808594 13.136719 C 10.355469 13.300781 10.789062 13.980469 10.699219 14.539062 C 10.640625 14.902344 10.519531 15.105469 10.042969 15.59375 C 9.1875 16.476562 9 17.4375 9.492188 18.441406 C 9.722656 18.902344 10.242188 19.394531 10.707031 19.582031 L 11.046875 19.71875 L 14.191406 19.71875 C 17.132812 19.71875 17.34375 19.710938 17.445312 19.613281 C 17.53125 19.523438 17.554688 19.371094 17.578125 18.691406 C 17.609375 17.9375 17.621094 17.871094 17.75 17.730469 C 17.835938 17.636719 17.953125 17.578125 18.054688 17.578125 C 18.234375 17.578125 18.160156 17.53125 20.589844 19.21875 C 21.949219 20.164062 22.417969 20.519531 22.488281 20.660156 C 22.613281 20.917969 22.542969 21.207031 22.308594 21.429688 C 22.113281 21.609375 18.574219 24.195312 18.351562 24.3125 C 18.140625 24.421875 17.949219 24.386719 17.789062 24.195312 C 17.648438 24.03125 17.636719 23.972656 17.636719 23.480469 C 17.636719 22.804688 17.566406 22.542969 17.367188 22.453125 C 17.261719 22.402344 16.347656 22.382812 14.132812 22.382812 C 11.34375 22.382812 10.992188 22.371094 10.511719 22.273438 C 9.03125 21.96875 7.835938 21.007812 7.089844 19.519531 C 6.515625 18.371094 6.429688 17.140625 6.832031 15.902344 C 7.113281 15.035156 7.449219 14.457031 8.023438 13.871094 C 8.714844 13.148438 9.1875 12.957031 9.808594 13.136719 Z M 9.808594 13.136719 "/>
</g>
</svg>
