<?xml version="1.0" encoding="UTF-8"?>
<svg xmlns="http://www.w3.org/2000/svg" xmlns:xlink="http://www.w3.org/1999/xlink" width="30px" height="30px" viewBox="0 0 30 30" version="1.1">
<g id="surface1">
<path style="fill-rule:nonzero;fill:rgb(100%,80.000001%,0%);fill-opacity:1;stroke-width:1;stroke-linecap:butt;stroke-linejoin:miter;stroke:rgb(0%,0%,0%);stroke-opacity:1;stroke-miterlimit:4;" d="M 31 58 L 226 58 L 226 196 L 31 196 Z M 31 58 " transform="matrix(0.117188,0,0,0.117188,0,0)"/>
<path style="fill-rule:nonzero;fill:rgb(14.117648%,16.862746%,30.980393%);fill-opacity:1;stroke-width:1;stroke-linecap:butt;stroke-linejoin:miter;stroke:rgb(70.980394%,18.431373%,18.431373%);stroke-opacity:1;stroke-miterlimit:4;" d="M 1098.999984 -10 C 567.999992 -93.999999 163.999998 -463.999993 33 -986.999985 C 8 -1084.999984 6 -1111.999983 6 -1279.999981 C 6 -1447.999978 8 -1474.999978 33 -1572.999977 C 154.999998 -2057.999969 501.999993 -2404.999964 986.999985 -2526.999962 C 1084.999984 -2551.999962 1111.999983 -2553.999962 1279.999981 -2553.999962 C 1447.999978 -2553.999962 1474.999978 -2551.999962 1572.999977 -2526.999962 C 2057.999969 -2404.999964 2404.999964 -2057.999969 2526.999962 -1572.999977 C 2551.999962 -1474.999978 2553.999962 -1447.999978 2553.999962 -1279.999981 C 2553.999962 -1111.999983 2551.999962 -1084.999984 2526.999962 -986.999985 C 2405.999964 -503.999992 2056.999969 -153.999998 1577.999976 -33.999999 C 1493.999978 -13 1444.999978 -8 1314.99998 -5 C 1226.999982 -3 1129.999983 -5 1098.999984 -10 Z M 1561.999977 -650.99999 C 1594.999976 -668.99999 1609.999976 -721.999989 1609.999976 -819.999988 L 1609.999976 -909.999986 L 1737.999974 -910.999986 C 1809.999973 -910.999986 1878.999972 -915.999986 1897.999972 -922.999986 C 1934.999971 -936.999986 2152.999968 -1137.999983 2180.999968 -1183.999982 C 2197.999967 -1211.999982 2199.999967 -1238.999982 2199.999967 -1451.999978 C 2199.999967 -1604.999976 2195.999967 -1697.999975 2188.999967 -1712.999974 C 2172.999968 -1746.999974 2139.999968 -1759.999974 2065.999969 -1759.999974 L 2001.99997 -1759.999974 L 1978.999971 -1806.999973 C 1913.999971 -1935.999971 1733.999974 -1958.999971 1635.999976 -1849.999972 C 1615.999976 -1827.999973 1597.999976 -1798.999973 1593.999976 -1784.999973 L 1587.999976 -1759.999974 L 1034.999985 -1759.999974 L 1009.999985 -1806.999973 C 941.999986 -1934.999971 772.999988 -1958.999971 672.99999 -1853.999972 C 648.99999 -1829.999973 627.999991 -1798.999973 623.999991 -1785.999973 C 618.999991 -1763.999974 612.999991 -1761.999974 537.999992 -1757.999974 C 432.999994 -1751.999974 419.999994 -1738.999974 419.999994 -1635.999976 C 419.999994 -1564.999977 419.999994 -1563.999977 389.999994 -1552.999977 L 358.999995 -1541.999977 L 364.999995 -687.99999 L 420.999994 -639.99999 L 980.999985 -639.99999 C 1362.99998 -639.99999 1547.999977 -642.99999 1561.999977 -650.99999 Z M 1561.999977 -650.99999 " transform="matrix(0.0117188,0,0,-0.0117188,0,0)"/>
<path style="fill-rule:nonzero;fill:rgb(14.117648%,16.862746%,30.980393%);fill-opacity:1;stroke-width:1;stroke-linecap:butt;stroke-linejoin:miter;stroke:rgb(70.980394%,18.431373%,18.431373%);stroke-opacity:1;stroke-miterlimit:4;" d="M 1609.999976 -1249.999981 L 1609.999976 -1489.999978 L 2109.999969 -1489.999978 L 2109.999969 -1389.999979 L 1939.999971 -1389.999979 C 1771.999974 -1389.999979 1768.999974 -1389.999979 1744.999974 -1364.99998 C 1719.999974 -1340.99998 1719.999974 -1337.99998 1719.999974 -1174.999982 L 1719.999974 -1009.999985 L 1609.999976 -1009.999985 Z M 1609.999976 -1249.999981 " transform="matrix(0.0117188,0,0,-0.0117188,0,0)"/>
<path style="fill-rule:nonzero;fill:rgb(14.117648%,16.862746%,30.980393%);fill-opacity:1;stroke-width:1;stroke-linecap:butt;stroke-linejoin:miter;stroke:rgb(70.980394%,18.431373%,18.431373%);stroke-opacity:1;stroke-miterlimit:4;" d="M 509.999992 -1609.999976 L 509.999992 -1659.999975 L 614.999991 -1659.999975 L 658.99999 -1559.999977 L 509.999992 -1559.999977 Z M 509.999992 -1609.999976 " transform="matrix(0.0117188,0,0,-0.0117188,0,0)"/>
<path style="fill-rule:nonzero;fill:rgb(14.117648%,16.862746%,30.980393%);fill-opacity:1;stroke-width:1;stroke-linecap:butt;stroke-linejoin:miter;stroke:rgb(70.980394%,18.431373%,18.431373%);stroke-opacity:1;stroke-miterlimit:4;" d="M 1004.999985 -1595.999976 C 1018.999985 -1615.999976 1029.999985 -1638.999976 1029.999985 -1645.999975 C 1029.999985 -1655.999975 1044.999984 -1659.999975 1079.999984 -1659.999975 L 1129.999983 -1659.999975 L 1129.999983 -1559.999977 L 980.999985 -1559.999977 Z M 1004.999985 -1595.999976 " transform="matrix(0.0117188,0,0,-0.0117188,0,0)"/>
<path style="fill-rule:nonzero;fill:rgb(14.117648%,16.862746%,30.980393%);fill-opacity:1;stroke-width:1;stroke-linecap:butt;stroke-linejoin:miter;stroke:rgb(70.980394%,18.431373%,18.431373%);stroke-opacity:1;stroke-miterlimit:4;" d="M 1229.999982 -1609.999976 L 1229.999982 -1659.999975 L 1419.999979 -1659.999975 L 1419.999979 -1559.999977 L 1229.999982 -1559.999977 Z M 1229.999982 -1609.999976 " transform="matrix(0.0117188,0,0,-0.0117188,0,0)"/>
<path style="fill-rule:nonzero;fill:rgb(14.117648%,16.862746%,30.980393%);fill-opacity:1;stroke-width:1;stroke-linecap:butt;stroke-linejoin:miter;stroke:rgb(70.980394%,18.431373%,18.431373%);stroke-opacity:1;stroke-miterlimit:4;" d="M 1509.999977 -1609.999976 L 1509.999977 -1659.999975 L 1547.999977 -1659.999975 C 1582.999976 -1659.999975 1585.999976 -1656.999975 1606.999976 -1609.999976 L 1628.999976 -1559.999977 L 1509.999977 -1559.999977 Z M 1509.999977 -1609.999976 " transform="matrix(0.0117188,0,0,-0.0117188,0,0)"/>
<path style="fill-rule:nonzero;fill:rgb(14.117648%,16.862746%,30.980393%);fill-opacity:1;stroke-width:1;stroke-linecap:butt;stroke-linejoin:miter;stroke:rgb(70.980394%,18.431373%,18.431373%);stroke-opacity:1;stroke-miterlimit:4;" d="M 1967.999971 -1586.999976 C 1978.999971 -1602.999976 1990.99997 -1624.999976 1993.99997 -1636.999976 C 1999.99997 -1656.999975 2007.99997 -1659.999975 2055.999969 -1659.999975 L 2109.999969 -1659.999975 L 2109.999969 -1559.999977 L 1948.999971 -1559.999977 Z M 1967.999971 -1586.999976 " transform="matrix(0.0117188,0,0,-0.0117188,0,0)"/>
<path style="fill-rule:nonzero;fill:rgb(14.117648%,16.862746%,30.980393%);fill-opacity:1;stroke-width:1;stroke-linecap:butt;stroke-linejoin:miter;stroke:rgb(70.980394%,18.431373%,18.431373%);stroke-opacity:1;stroke-miterlimit:4;" d="M 760.999989 -1630.999976 C 726.999989 -1662.999975 718.999989 -1693.999975 732.999989 -1736.999974 C 749.999989 -1788.999973 803.999988 -1816.999973 854.999987 -1799.999973 C 899.999987 -1784.999973 919.999986 -1755.999974 919.999986 -1703.999975 C 919.999986 -1668.999975 914.999986 -1656.999975 888.999987 -1635.999976 C 849.999987 -1602.999976 793.999988 -1600.999976 760.999989 -1630.999976 Z M 760.999989 -1630.999976 " transform="matrix(0.0117188,0,0,-0.0117188,0,0)"/>
<path style="fill-rule:nonzero;fill:rgb(14.117648%,16.862746%,30.980393%);fill-opacity:1;stroke-width:1;stroke-linecap:butt;stroke-linejoin:miter;stroke:rgb(70.980394%,18.431373%,18.431373%);stroke-opacity:1;stroke-miterlimit:4;" d="M 1732.999974 -1627.999976 C 1688.999975 -1661.999975 1681.999975 -1730.999974 1717.999974 -1771.999974 C 1739.999974 -1797.999973 1791.999973 -1811.999973 1822.999973 -1800.999973 C 1866.999972 -1783.999973 1889.999972 -1749.999974 1889.999972 -1703.999975 C 1889.999972 -1668.999975 1884.999972 -1656.999975 1858.999972 -1635.999976 C 1822.999973 -1604.999976 1765.999974 -1601.999976 1732.999974 -1627.999976 Z M 1732.999974 -1627.999976 " transform="matrix(0.0117188,0,0,-0.0117188,0,0)"/>
</g>
</svg>
