<?xml version="1.0" standalone="no"?>
<!DOCTYPE svg PUBLIC "-//W3C//DTD SVG 20010904//EN"
 "http://www.w3.org/TR/2001/REC-SVG-20010904/DTD/svg10.dtd">
<svg version="1.0" xmlns="http://www.w3.org/2000/svg"
 width="512.000000pt" height="512.000000pt" viewBox="0 0 512.000000 512.000000"
 preserveAspectRatio="xMidYMid meet">

<g transform="translate(0.000000,512.000000) scale(0.100000,-0.100000)"
fill="#000000" stroke="none">
<path d="M705 5111 c-11 -5 -29 -19 -40 -31 -20 -22 -20 -36 -20 -1971 l0
-1949 26 -25 c14 -14 41 -28 61 -31 30 -5 41 -1 69 24 l34 30 3 1881 2 1881
1719 0 1719 0 3 -114 c4 -97 7 -119 25 -142 38 -52 103 -56 150 -9 24 24 24
27 24 210 0 109 -4 194 -10 206 -28 52 77 49 -1907 48 -1011 0 -1847 -4 -1858
-8z"/>
<path d="M4344 4410 c-54 -21 -72 -105 -34 -153 27 -34 78 -44 118 -23 37 19
52 44 52 86 0 42 -15 67 -50 85 -32 17 -54 18 -86 5z"/>
<path d="M1454 4036 c-38 -38 -44 -76 -18 -116 9 -14 67 -76 128 -138 l111
-112 -122 -123 c-74 -74 -124 -133 -129 -150 -14 -60 35 -117 102 -117 33 0
47 11 163 124 l126 125 127 -125 c121 -119 128 -124 168 -124 79 0 123 77 86
148 -8 15 -64 76 -125 137 l-110 109 124 127 c114 116 125 130 125 163 0 67
-57 116 -117 102 -17 -5 -76 -55 -150 -129 l-123 -122 -112 111 c-62 61 -124
119 -138 128 -40 26 -78 20 -116 -18z"/>
<path d="M2975 4061 c-37 -15 -60 -51 -60 -92 0 -37 8 -47 123 -162 67 -67
122 -127 122 -132 0 -6 -50 -60 -111 -120 -124 -123 -146 -158 -129 -210 14
-42 48 -65 96 -65 34 0 48 10 166 127 l128 127 128 -127 c119 -117 132 -127
166 -127 54 0 96 44 96 100 0 40 -5 47 -124 169 l-125 126 125 126 c116 118
124 128 124 165 0 47 -19 77 -59 94 -52 21 -79 5 -209 -123 l-122 -121 -118
116 c-142 141 -161 152 -217 129z"/>
<path d="M4343 4010 c-12 -5 -30 -21 -40 -37 -17 -26 -18 -94 -21 -1380 l-2
-1353 -474 0 c-278 0 -485 -4 -500 -10 -14 -5 -33 -21 -43 -37 -17 -25 -18
-64 -21 -510 l-3 -483 -1199 0 -1200 0 0 116 0 116 -35 35 c-31 31 -40 35 -72
30 -20 -4 -48 -18 -62 -32 l-26 -25 0 -190 0 -190 28 -27 27 -28 1345 0 1345
0 545 545 545 545 0 1428 c0 961 -3 1435 -10 1448 -12 22 -61 49 -87 48 -10 0
-28 -4 -40 -9z m-543 -3315 c-190 -190 -348 -345 -352 -345 -5 0 -8 155 -8
345 l0 345 352 0 353 0 -345 -345z"/>
<path d="M2375 2539 c-301 -27 -591 -128 -827 -286 -82 -55 -116 -88 -124
-120 -18 -68 50 -137 119 -119 12 3 54 28 92 56 77 57 274 156 375 190 113 38
268 69 411 81 359 33 773 -66 1029 -245 104 -73 138 -89 176 -81 44 8 74 47
74 98 0 47 -28 78 -137 150 -319 212 -763 315 -1188 276z"/>
<path d="M705 891 c-64 -27 -81 -110 -32 -158 60 -61 162 -19 162 67 0 66 -72
116 -130 91z"/>
</g>
</svg>
